<?xml version="1.0" standalone="no"?>
<!DOCTYPE svg PUBLIC "-//W3C//DTD SVG 20010904//EN"
 "http://www.w3.org/TR/2001/REC-SVG-20010904/DTD/svg10.dtd">
<svg version="1.0" xmlns="http://www.w3.org/2000/svg"
 width="1000.000000pt" height="1000.000000pt" viewBox="0 0 1000.000000 1000.000000"
 preserveAspectRatio="xMidYMid meet">
<metadata>
Created by potrace 1.14, written by Peter Selinger 2001-2017
</metadata>
<g transform="translate(0.000000,1000.000000) scale(0.100000,-0.100000)"
fill="#000000" stroke="none">
<path d="M5080 9180 c-19 -4 -53 -11 -75 -14 -69 -10 -178 -42 -240 -70 -32
-15 -84 -30 -115 -33 -30 -2 -80 -14 -110 -24 -30 -11 -59 -21 -65 -22 -5 -1
-16 -8 -23 -14 -7 -7 -21 -14 -30 -15 -32 -2 -37 -4 -47 -9 -5 -4 -37 -21 -70
-39 -106 -58 -189 -108 -212 -127 -12 -10 -30 -25 -40 -34 -10 -9 -33 -32 -51
-52 -18 -20 -38 -37 -45 -37 -7 0 -8 3 -2 8 6 4 16 14 22 23 10 13 10 16 -2
16 -8 0 -15 -6 -15 -13 0 -6 -7 -15 -16 -18 -9 -3 -14 -12 -11 -20 4 -10 -1
-13 -19 -11 -19 2 -22 0 -13 -11 9 -11 8 -14 0 -14 -7 0 -9 -5 -5 -11 4 -8 0
-7 -15 1 -12 6 -18 16 -15 22 4 7 2 8 -5 4 -8 -6 -9 -11 -1 -20 12 -16 -39
-75 -60 -68 -7 3 -10 0 -6 -7 4 -6 2 -11 -4 -11 -6 0 -9 -4 -6 -9 9 -13 -21
-34 -36 -25 -7 4 -10 4 -6 -1 4 -4 -1 -20 -12 -35 -25 -34 -25 -41 -2 -34 14
5 14 4 3 -4 -8 -6 -16 -19 -17 -29 -2 -9 -8 -19 -14 -21 -5 -2 -8 -7 -5 -11 2
-5 -8 -19 -23 -32 -14 -13 -21 -17 -14 -7 9 11 10 18 2 23 -5 3 -10 1 -10 -5
0 -6 -4 -9 -8 -6 -5 3 -9 0 -10 -7 -2 -24 -8 -47 -14 -53 -4 -3 -4 -13 -1 -22
4 -10 2 -14 -2 -9 -5 4 -20 -19 -33 -50 -27 -64 -44 -125 -32 -118 4 2 16 -2
26 -9 17 -13 17 -14 -6 -9 -14 2 -33 -2 -43 -9 -18 -13 -17 -14 2 -14 11 0 18
3 16 6 -2 4 1 7 8 7 14 0 16 -44 4 -64 -5 -7 -5 -18 -2 -23 4 -6 1 -9 -7 -8
-8 2 -12 -4 -10 -14 4 -23 -24 -24 -36 -2 -8 15 -10 15 -15 0 -4 -9 -3 -15 1
-14 4 1 15 -2 24 -6 17 -8 14 -36 -4 -36 -5 0 -6 5 -3 10 3 6 -6 15 -20 20
-17 6 -24 14 -19 22 8 13 14 37 17 76 1 12 6 22 10 22 5 0 5 5 2 10 -9 15 -27
1 -21 -16 3 -8 2 -14 -2 -14 -4 0 -9 -8 -10 -17 -3 -37 -8 -59 -16 -71 -4 -6
-4 -12 0 -12 3 0 1 -6 -5 -14 -8 -10 -9 -16 -1 -21 6 -3 7 -12 3 -18 -11 -17
-12 -57 -1 -57 7 0 12 34 6 43 -1 1 4 13 11 26 10 18 10 22 1 16 -8 -5 -11 -3
-9 4 3 7 8 12 12 12 4 -1 14 -1 22 -1 8 0 14 -3 14 -7 -4 -22 2 -33 14 -27 9
6 9 5 0 -8 -7 -8 -10 -18 -6 -21 3 -4 0 -7 -8 -7 -12 0 -12 -2 0 -9 10 -6 10
-13 2 -28 -5 -11 -7 -24 -3 -28 4 -4 -4 -4 -18 -1 -21 6 -22 5 -7 -4 20 -13
23 -46 5 -53 -10 -4 -9 -6 1 -6 11 -1 11 -4 0 -18 -8 -9 -9 -14 -3 -10 6 3 11
0 11 -8 0 -8 -4 -12 -9 -9 -5 3 -7 -18 -4 -49 7 -63 26 -114 36 -96 4 6 7
-103 6 -243 -2 -140 -6 -260 -11 -268 -5 -8 -4 -11 2 -7 6 4 13 0 17 -8 3 -8
1 -17 -5 -21 -6 -4 -5 -12 3 -22 11 -13 11 -14 -1 -8 -9 6 -12 5 -9 -5 3 -8
11 -13 17 -11 7 1 10 -2 6 -8 -3 -6 -12 -7 -18 -3 -9 5 -9 3 -1 -8 15 -20 15
-59 1 -65 -8 -3 -12 -35 -11 -107 2 -112 -4 -169 -16 -162 -5 3 -12 1 -15 -5
-4 -6 -1 -9 7 -8 15 3 12 -55 -3 -60 -4 -2 -3 -9 4 -17 7 -7 17 -10 22 -7 6 3
4 -1 -2 -10 -7 -8 -10 -18 -6 -21 8 -9 4 -9 -34 2 -27 8 -31 7 -26 -7 6 -14 4
-14 -15 0 -33 22 -68 11 -103 -33 -17 -22 -27 -39 -22 -39 4 0 3 -4 -3 -8 -12
-8 -67 -163 -83 -232 -25 -112 -34 -302 -15 -331 5 -8 10 -23 11 -33 5 -27 29
-126 53 -214 11 -41 22 -92 25 -115 12 -94 15 -110 31 -168 9 -33 21 -62 25
-65 5 -3 9 -12 9 -21 0 -9 6 -24 14 -32 7 -9 18 -29 23 -45 10 -34 80 -77 92
-58 4 7 12 8 21 2 12 -8 11 -10 -5 -10 -19 -1 -19 -2 -3 -14 18 -13 20 -26 38
-191 10 -99 44 -227 82 -315 11 -25 27 -61 35 -80 8 -19 34 -75 59 -125 l44
-90 4 -675 c3 -594 2 -677 -12 -692 -8 -10 -22 -18 -30 -18 -23 0 -70 -32 -75
-52 -3 -10 -2 -16 2 -13 4 2 8 -2 8 -8 0 -15 -34 -20 -43 -6 -7 11 -157 -66
-261 -134 -39 -26 -100 -59 -135 -73 -119 -49 -151 -66 -217 -117 -36 -28 -68
-54 -71 -57 -15 -15 -74 -52 -87 -54 -8 -1 -18 -8 -23 -15 -4 -8 -13 -10 -19
-7 -6 4 -11 2 -11 -3 0 -6 -11 -11 -24 -11 -13 0 -30 -8 -37 -17 -10 -11 -10
-14 -1 -9 6 4 12 2 12 -3 0 -6 -14 -11 -31 -11 -19 0 -28 -4 -24 -11 4 -6 1
-9 -6 -8 -8 2 -78 -29 -156 -68 -79 -40 -143 -69 -143 -65 0 4 -4 2 -8 -4 -4
-6 -37 -22 -75 -37 -78 -31 -119 -49 -277 -122 -63 -29 -160 -71 -215 -95 -55
-23 -124 -53 -153 -66 -29 -13 -61 -26 -72 -27 -10 -2 -25 -9 -34 -16 -8 -7
-20 -10 -26 -6 -5 3 -10 1 -10 -4 0 -6 -4 -11 -9 -11 -5 0 -26 -8 -47 -17 -22
-9 -43 -16 -47 -15 -5 1 -20 -4 -35 -12 -15 -7 -49 -20 -77 -29 -91 -27 -539
-184 -585 -204 -260 -115 -482 -254 -617 -387 l-83 -81 0 -492 0 -493 5000 0
5000 0 0 553 0 553 -28 27 c-20 19 -34 25 -47 21 -12 -5 -16 -4 -12 3 6 9 -12
23 -33 27 -3 1 -19 11 -37 24 -17 12 -34 22 -38 22 -3 0 -13 7 -22 15 -8 8
-19 13 -24 10 -5 -4 -9 -1 -9 4 0 6 -7 11 -15 11 -8 0 -15 5 -15 10 0 6 -8 10
-18 10 -10 0 -22 4 -27 9 -6 5 -73 37 -150 71 -139 60 -226 102 -255 120 -16
11 -309 150 -314 150 -2 0 -62 27 -132 61 -71 34 -131 61 -134 61 -3 0 -12 6
-21 14 -9 8 -18 11 -22 8 -3 -4 -18 3 -33 15 -15 11 -30 21 -35 21 -4 0 -43
16 -86 36 -43 21 -84 38 -91 40 -7 1 -42 21 -78 43 -36 23 -71 41 -79 41 -7 0
-15 7 -19 15 -3 8 -14 15 -24 15 -10 0 -22 4 -27 9 -6 5 -63 36 -128 70 -66
34 -138 75 -162 91 -24 17 -46 30 -49 30 -3 0 -38 21 -78 46 -225 143 -253
165 -460 367 -60 58 -81 72 -143 92 -41 14 -88 25 -107 25 -45 0 -72 20 -187
138 -55 56 -105 102 -113 102 -11 0 -11 -2 0 -9 10 -6 9 -10 -7 -14 -12 -3
-19 -1 -15 4 3 5 0 9 -6 9 -6 0 -23 14 -38 32 -15 18 -52 59 -82 91 -58 62
-130 164 -130 184 0 6 -7 19 -16 27 -8 9 -11 16 -6 16 6 0 10 114 11 306 1
169 3 309 5 313 2 3 7 67 11 141 4 74 8 151 9 171 2 28 11 44 38 68 48 42 97
160 142 341 35 143 44 197 45 275 2 63 10 69 74 58 31 -6 54 -6 51 -2 -3 5 8
11 23 15 34 8 126 58 170 93 47 37 156 268 166 353 4 34 7 43 34 113 8 22 19
49 23 60 4 11 23 52 42 90 61 121 73 278 32 430 -8 33 -17 67 -19 75 -9 42
-67 151 -82 157 -10 4 -34 17 -54 29 -51 31 -164 48 -178 26 -3 -5 -15 -12
-26 -16 -21 -6 -21 -5 -8 141 17 206 20 242 39 573 6 112 11 148 30 214 8 27
12 52 9 54 -3 3 0 11 6 19 8 9 8 13 1 13 -6 0 -9 8 -7 19 2 10 5 53 7 94 2 41
7 73 11 70 5 -3 7 -23 5 -44 -4 -48 9 -37 15 11 6 55 -47 253 -106 390 -17 41
-28 85 -42 178 -8 48 -36 115 -58 134 -10 9 -16 22 -12 28 4 7 -2 14 -14 17
-11 3 -18 9 -15 14 3 5 0 9 -6 9 -6 0 -9 4 -6 9 3 5 -1 11 -9 15 -8 3 -15 12
-15 21 0 8 -4 15 -10 15 -5 0 -10 8 -10 18 0 11 -7 33 -16 50 -8 18 -13 36 -9
42 3 5 2 10 -3 10 -5 0 -42 41 -82 90 -40 50 -84 98 -99 108 -37 26 -84 45
-76 31 5 -7 2 -7 -11 0 -11 5 -61 31 -113 56 -52 26 -120 60 -150 78 -31 17
-73 39 -93 49 -20 10 -40 22 -43 28 -3 5 -12 10 -19 10 -7 0 -45 18 -85 39
-39 22 -68 34 -64 28 5 -9 2 -8 -9 0 -8 7 -18 10 -21 6 -4 -3 -7 -1 -7 6 0 7
-4 10 -9 6 -5 -3 -16 2 -25 10 -8 8 -65 24 -128 36 -62 11 -167 32 -233 45
-127 27 -330 39 -395 24z m590 -80 c0 -5 8 -7 18 -4 14 5 14 4 3 -4 -10 -7
-21 -7 -35 0 -31 16 -32 18 -8 18 12 0 22 -4 22 -10z m899 -400 c24 -17 40
-30 35 -30 -5 0 -1 -5 8 -11 9 -5 15 -16 12 -24 -8 -19 -25 -9 -89 49 -39 36
-46 46 -30 46 11 0 40 -14 64 -30z m81 -80 c0 -5 -4 -10 -10 -10 -5 0 -10 5
-10 10 0 6 5 10 10 10 6 0 10 -4 10 -10z m-2755 -10 c-3 -5 -12 -10 -18 -10
-7 0 -6 4 3 10 19 12 23 12 15 0z m-275 -415 c0 -14 -4 -25 -9 -25 -4 0 -6 11
-3 25 2 14 6 25 8 25 2 0 4 -11 4 -25z m-13 -41 c-3 -3 -12 -4 -19 -1 -8 3 -5
6 6 6 11 1 17 -2 13 -5z m-7 -29 c0 -8 -4 -15 -8 -15 -5 0 -9 7 -9 15 0 8 4
15 9 15 4 0 8 -7 8 -15z m3364 -923 c3 -5 -1 -9 -9 -9 -8 0 -12 4 -9 9 3 4 7
8 9 8 2 0 6 -4 9 -8z m-40 -328 c3 -8 2 -12 -4 -9 -6 3 -10 10 -10 16 0 14 7
11 14 -7z m13 -116 c-3 -7 -5 -2 -5 12 0 14 2 19 5 13 2 -7 2 -19 0 -25z
m-3513 -307 c3 -5 -1 -12 -10 -15 -8 -3 -12 -10 -9 -16 3 -5 1 -10 -4 -10 -6
0 -11 5 -11 10 0 6 -4 10 -10 10 -5 0 -9 -6 -7 -12 1 -7 -4 -12 -10 -10 -7 1
-13 -2 -13 -8 0 -13 17 -13 25 0 5 8 11 7 21 -1 11 -9 14 -9 14 1 0 7 7 10 16
6 10 -4 13 -2 8 6 -5 7 -3 8 7 3 12 -7 12 -6 1 7 -10 12 -10 18 2 27 11 9 16
9 22 -1 11 -17 14 -38 5 -35 -3 1 -17 -8 -31 -21 -16 -15 -27 -19 -34 -12 -13
13 -29 13 -21 0 3 -5 -6 -17 -20 -26 -13 -9 -22 -20 -19 -25 3 -5 -1 -6 -9 -3
-11 4 -14 -2 -11 -25 3 -26 0 -31 -17 -31 -11 0 -17 -5 -14 -10 4 -6 11 -8 16
-5 5 3 6 -1 2 -10 -4 -12 -8 -13 -13 -5 -5 8 -10 8 -14 2 -3 -5 1 -15 9 -22 8
-7 15 -17 15 -22 0 -6 -9 0 -20 13 -10 13 -19 19 -20 14 0 -6 6 -17 13 -24 9
-11 9 -12 0 -7 -20 11 -37 47 -21 44 8 -2 13 6 12 19 -1 13 3 20 7 17 5 -3 9
0 9 6 0 7 6 10 14 7 15 -6 16 17 1 30 -4 4 -5 3 -2 -3 4 -7 0 -14 -8 -18 -19
-7 -19 8 0 27 8 8 11 17 8 20 -7 7 33 73 60 98 22 20 52 25 61 10z m3679 -38
c32 -5 36 -18 7 -20 -13 -1 -18 2 -14 9 4 7 2 8 -5 4 -9 -6 -9 -11 1 -24 8
-10 8 -13 1 -9 -6 4 -14 1 -17 -5 -4 -9 -5 -8 -5 2 2 29 -1 37 -16 37 -18 0
-20 -13 -2 -20 9 -4 9 -6 0 -6 -14 -1 -26 16 -19 27 6 10 31 12 69 5z m86 -53
c13 -11 27 -17 31 -15 7 5 22 -25 35 -74 6 -20 2 -19 -29 14 -20 20 -36 41
-36 45 0 5 -14 18 -30 30 -17 12 -28 26 -25 31 4 5 11 5 18 -1 7 -6 23 -19 36
-30z m-14 -30 c5 -11 3 -12 -6 -3 -6 6 -18 9 -25 6 -8 -3 -14 0 -14 7 0 6 -4
9 -8 6 -4 -2 -9 7 -10 20 l-2 25 29 -23 c16 -13 32 -30 36 -38z m-55 -5 c0 -2
-6 -5 -13 -8 -8 -3 -14 1 -14 8 0 7 6 11 14 8 7 -3 13 -6 13 -8z m-3847 -156
c-10 -4 -13 -8 -8 -8 6 -1 3 -6 -5 -11 -24 -15 -33 -12 -15 6 12 13 13 19 4
31 -11 12 -9 12 15 2 25 -12 26 -14 9 -20z m4004 25 c-3 -3 -12 -4 -19 -1 -8
3 -5 6 6 6 11 1 17 -2 13 -5z m-22 -22 c-3 -3 -11 0 -18 7 -9 10 -8 11 6 5 10
-3 15 -9 12 -12z m31 -18 c1 -9 0 -13 -4 -10 -3 4 -7 14 -8 22 -1 9 0 13 4 10
3 -4 7 -14 8 -22z m-4024 -26 c-9 -9 -9 -15 1 -27 8 -11 5 -10 -10 2 -13 12
-23 14 -26 7 -3 -6 -4 -5 -3 2 2 7 8 13 14 13 5 0 14 3 18 8 4 4 10 7 13 7 3
0 0 -5 -7 -12z m4033 -8 c3 -6 -1 -7 -9 -4 -18 7 -21 14 -7 14 6 0 13 -4 16
-10z m-12 -45 c4 -8 3 -16 -1 -19 -4 -3 -9 4 -9 15 -2 23 3 25 10 4z m28 -38
c-6 -8 -7 -18 -3 -22 4 -5 2 -5 -5 -1 -14 8 -6 36 9 36 7 0 6 -5 -1 -13z
m-4067 -56 c3 -5 -2 -15 -12 -22 -15 -12 -16 -12 -5 2 7 9 10 19 6 22 -3 4 -4
7 0 7 3 0 8 -4 11 -9z m-11 -48 c-7 -2 -13 -9 -13 -14 0 -6 4 -7 10 -4 6 3 7
-1 4 -9 -9 -24 -22 -19 -19 7 3 28 3 27 18 26 10 0 10 -2 0 -6z m32 -13 c3 -5
1 -10 -4 -10 -6 0 -11 5 -11 10 0 6 2 10 4 10 3 0 8 -4 11 -10z m4050 0 c3 -6
-1 -7 -9 -4 -18 7 -21 14 -7 14 6 0 13 -4 16 -10z m-21 -25 c-4 -8 -11 -12
-16 -9 -6 4 -5 10 3 15 19 12 19 11 13 -6z m-4046 -17 c-1 -13 -6 -29 -11 -35
-10 -14 3 -18 19 -5 5 4 3 0 -3 -8 -11 -12 -15 -12 -30 4 -13 12 -14 16 -4 14
7 -2 16 3 19 11 2 8 0 11 -6 7 -6 -3 -14 -1 -18 5 -4 8 -3 9 5 5 6 -4 14 0 17
8 9 22 13 20 12 -6z m4058 -33 c1 -8 -1 -17 -5 -19 -4 -3 -7 6 -7 19 0 25 8
25 12 0z m-26 -5 c0 -5 -5 -10 -11 -10 -5 0 -7 5 -4 10 3 6 8 10 11 10 2 0 4
-4 4 -10z m-4015 -42 c-1 -13 -4 -24 -5 -25 -4 -5 -7 -21 -10 -50 l-2 -28 -7
25 c-4 14 -3 28 2 31 5 4 5 9 -2 13 -17 11 -13 29 4 22 8 -3 15 -1 15 4 0 6
-8 10 -17 11 -15 0 -15 2 2 9 11 5 21 9 21 9 1 1 0 -9 -1 -21z m3969 -56 c3
-5 -1 -9 -9 -9 -8 0 -12 4 -9 9 3 4 7 8 9 8 2 0 6 -4 9 -8z m-3949 -23 c11
-16 1 -19 -13 -3 -7 8 -8 14 -3 14 5 0 13 -5 16 -11z m3975 7 c0 -2 -8 -10
-17 -17 -16 -13 -17 -12 -4 4 13 16 21 21 21 13z m-3966 -59 c7 -5 4 -6 -7 -3
-12 4 -17 2 -14 -6 2 -7 10 -12 16 -10 7 1 10 -2 6 -8 -3 -5 0 -10 7 -10 8 0
9 -3 3 -8 -16 -11 -19 -63 -3 -59 7 2 9 2 5 -1 -5 -2 0 -13 9 -23 9 -11 14
-22 11 -26 -4 -3 -2 -11 3 -18 6 -8 5 -18 -4 -30 -11 -15 -13 -16 -13 -1 0 9
4 16 9 16 5 0 2 7 -6 16 -9 8 -16 20 -16 25 0 18 -2 24 -10 34 -5 6 -11 22
-14 35 -11 56 -15 71 -20 79 -4 5 -3 17 0 26 6 16 8 16 17 -1 6 -11 15 -23 21
-27z m3916 -32 c-6 -8 -8 -20 -4 -27 5 -10 4 -10 -6 -1 -11 10 -11 15 0 28 7
8 15 15 17 15 3 0 0 -7 -7 -15z m-15 -44 c3 -5 0 -13 -6 -17 -7 -4 -9 -3 -5 4
3 5 0 13 -6 15 -9 4 -10 6 -1 6 6 1 14 -3 18 -8z m-34 -48 c-12 -20 -14 -14
-5 12 4 9 9 14 11 11 3 -2 0 -13 -6 -23z m-11 -58 c0 -8 -4 -15 -10 -15 -5 0
-7 7 -4 15 4 8 8 15 10 15 2 0 4 -7 4 -15z m-3800 -45 c0 -5 -4 -10 -10 -10
-5 0 -10 5 -10 10 0 6 5 10 10 10 6 0 10 -4 10 -10z m3785 -11 c11 -16 1 -19
-13 -3 -7 8 -8 14 -3 14 5 0 13 -5 16 -11z m-3801 -25 c3 -8 2 -12 -4 -9 -6 3
-10 10 -10 16 0 14 7 11 14 -7z m3801 -12 c-3 -3 -11 0 -18 7 -9 10 -8 11 6 5
10 -3 15 -9 12 -12z m-3771 -10 c2 -4 -5 -9 -17 -9 -17 -2 -19 0 -7 7 18 12
18 12 24 2z m3759 -22 c-3 -10 -17 -29 -31 -42 -21 -18 -23 -19 -9 -2 9 11 14
24 10 29 -5 4 -2 5 6 0 11 -6 13 -2 9 18 -3 17 -1 24 7 20 7 -2 11 -13 8 -23z
m-3738 -20 c4 -6 1 -9 -7 -8 -7 2 -12 -2 -11 -9 2 -7 -4 -10 -12 -6 -13 5 -13
7 2 19 22 16 20 16 28 4z m3735 -34 c0 -2 -7 -7 -16 -10 -8 -3 -12 -2 -9 4 6
10 25 14 25 6z m-3734 -40 c0 -19 -5 -38 -10 -43 -5 -5 -6 -2 -1 6 4 8 2 17
-6 22 -12 7 -11 9 1 9 11 1 10 4 -5 17 -16 13 -17 15 -2 10 9 -4 17 -2 17 3 0
6 2 10 4 10 2 0 3 -15 2 -34z m3694 14 c0 -5 -4 -10 -10 -10 -5 0 -10 5 -10
10 0 6 5 10 10 10 6 0 10 -4 10 -10z m-32 -22 c-2 -8 7 -12 22 -11 14 1 17 -1
8 -3 -9 -3 -15 -11 -12 -19 3 -7 0 -16 -5 -20 -6 -3 -9 -11 -6 -16 4 -5 -1
-12 -9 -15 -9 -3 -16 -11 -16 -18 0 -15 -39 -48 -49 -41 -5 2 -11 -5 -14 -16
-5 -18 -8 -19 -28 -9 -19 11 -21 10 -16 -4 4 -9 2 -16 -3 -16 -6 0 -10 7 -10
16 0 9 -5 12 -12 8 -6 -4 -8 -3 -5 4 4 5 15 9 25 7 9 -1 27 4 40 11 12 8 22
12 22 9 0 -3 9 3 20 13 13 12 18 25 14 35 -4 10 -1 17 6 17 7 0 10 7 6 15 -3
8 0 14 6 12 6 -1 13 4 16 12 2 8 0 11 -6 7 -8 -5 -10 9 -3 32 3 9 11 0 9 -10z
m-3644 -40 c-5 -7 -2 -9 8 -6 8 4 15 1 15 -7 0 -7 -7 -11 -16 -8 -13 4 -13 2
2 -10 22 -19 24 -69 1 -60 -11 4 -12 9 -5 16 6 6 11 16 11 22 0 5 -5 3 -10 -5
-9 -14 -12 -7 -9 16 0 4 -5 10 -12 15 -10 6 -10 11 0 23 16 19 25 21 15 4z
m82 -93 c3 -17 -12 -20 -21 -5 -3 6 -1 10 5 10 6 0 8 6 4 13 -4 6 -3 8 1 4 5
-4 10 -14 11 -22z m3484 21 c0 -2 -7 -7 -16 -10 -8 -3 -12 -2 -9 4 6 10 25 14
25 6z m-145 -65 c3 -5 2 -12 -3 -15 -5 -3 -9 1 -9 9 0 17 3 19 12 6z m45 -22
c0 -5 5 -7 10 -4 17 10 11 -2 -7 -16 -10 -7 -15 -9 -11 -5 4 5 3 15 -3 23 -9
9 -8 13 0 13 6 0 11 -5 11 -11z m-20 -21 c0 -11 -12 -10 -30 2 -12 7 -10 9 8
7 12 0 22 -5 22 -9z m-35 -16 c-3 -3 -11 0 -18 7 -9 10 -8 11 6 5 10 -3 15 -9
12 -12z m-3252 1 c-16 -6 -17 -53 -1 -53 9 0 9 -3 1 -11 -6 -6 -9 -19 -6 -28
4 -9 3 -13 -1 -9 -10 8 -18 86 -11 98 3 6 12 10 18 9 9 0 9 -2 0 -6z m3127
-83 c0 -5 -2 -10 -4 -10 -3 0 -8 5 -11 10 -3 6 -1 10 4 10 6 0 11 -4 11 -10z
m-14 -46 c2 -16 0 -22 -3 -14 -3 8 -11 18 -17 22 -7 5 -6 8 4 8 13 0 13 1 0
11 -12 8 -12 10 -1 7 8 -2 16 -17 17 -34z m-3106 6 c0 -5 -4 -10 -10 -10 -5 0
-10 5 -10 10 0 6 5 10 10 10 6 0 10 -4 10 -10z m30 -15 c-7 -9 -15 -13 -19
-10 -3 3 1 10 9 15 21 14 24 12 10 -5z m-35 -15 c-3 -5 -1 -10 6 -10 7 0 10
-3 6 -6 -9 -9 -28 6 -22 17 4 5 8 9 11 9 3 0 2 -4 -1 -10z m61 -12 c4 -7 3
-10 -1 -5 -5 4 -17 0 -27 -10 -18 -17 -25 -39 -9 -28 5 3 13 0 17 -6 4 -8 3
-9 -4 -5 -7 4 -12 2 -12 -3 0 -6 5 -11 12 -11 6 0 9 -2 6 -5 -9 -10 -37 6 -40
23 -2 10 8 27 22 39 30 27 27 26 36 11z m3018 -36 c3 -5 -1 -9 -9 -9 -8 0 -12
4 -9 9 3 4 7 8 9 8 2 0 6 -4 9 -8z m-3023 -55 c-10 -9 -11 -8 -5 6 3 10 9 15
12 12 3 -3 0 -11 -7 -18z m-26 -16 c-3 -3 -10 1 -15 9 -8 13 -10 13 -10 1 0
-8 -3 -12 -6 -8 -3 3 -3 11 1 17 5 8 11 8 21 -1 8 -6 12 -14 9 -18z m35 -5 c0
-2 -7 -7 -16 -10 -8 -3 -12 -2 -9 4 6 10 25 14 25 6z m3010 -20 c0 -2 -7 -7
-16 -10 -8 -3 -12 -2 -9 4 6 10 25 14 25 6z m10 -26 c0 -5 -4 -10 -10 -10 -5
0 -10 5 -10 10 0 6 5 10 10 10 6 0 10 -4 10 -10z m-3005 -9 c3 -5 2 -12 -3
-15 -5 -3 -9 1 -9 9 0 17 3 19 12 6z m5 -52 c0 -5 -4 -9 -8 -9 -5 0 -9 7 -9
15 0 8 4 12 9 9 4 -3 8 -9 8 -15z m2978 4 c2 -7 -1 -13 -8 -13 -6 0 -9 4 -5 9
3 5 -3 12 -12 15 -15 4 -15 5 1 3 11 -1 21 -8 24 -14z m-17 -42 c10 15 6 -23
-7 -63 l-7 -23 -10 25 c-15 36 -17 51 -6 44 5 -3 7 -9 4 -14 -3 -5 0 -12 6
-16 9 -5 10 4 6 32 -3 21 -3 30 0 20 4 -15 7 -16 14 -5z m-2960 -25 c-6 -7 -9
-22 -5 -32 5 -16 4 -17 -5 -3 -7 12 -7 24 2 42 7 15 14 22 15 16 2 -5 -1 -16
-7 -23z m36 -11 c0 -8 -5 -11 -10 -8 -6 4 -7 -4 -3 -21 4 -17 3 -25 -3 -22 -5
3 -12 0 -14 -6 -3 -7 -3 3 0 22 5 28 16 48 29 50 0 0 1 -7 1 -15z m2838 -53
c-3 -3 -11 0 -18 7 -9 10 -8 11 6 5 10 -3 15 -9 12 -12z m33 4 c-7 -8 -15 -12
-17 -11 -5 6 10 25 20 25 5 0 4 -6 -3 -14z m-2811 -21 c0 -8 -4 -12 -9 -9 -5
3 -6 10 -3 15 9 13 12 11 12 -6z m2837 3 c-3 -4 -9 -8 -15 -8 -5 0 -9 4 -9 8
0 5 7 9 15 9 8 0 12 -4 9 -9z m-2851 -69 c-7 -7 -13 -7 -18 2 -6 8 -4 10 5 4
8 -5 11 -3 8 6 -3 8 -11 13 -17 11 -7 -1 -10 2 -7 7 4 5 2 12 -4 16 -5 3 -10
11 -10 16 0 6 12 -4 26 -21 18 -21 24 -34 17 -41z m2815 49 c-2 -7 4 -12 14
-12 13 1 15 -3 6 -27 -5 -16 -14 -29 -20 -29 -5 0 -7 -4 -4 -9 3 -5 0 -11 -7
-14 -8 -3 -14 1 -14 9 0 7 6 15 14 18 7 3 13 15 13 26 0 14 -4 19 -12 14 -7
-4 -8 -3 -4 4 4 7 1 12 -6 12 -9 0 -9 3 2 10 19 13 20 12 18 -2z m-8 -44 c0
-2 -7 -4 -15 -4 -8 0 -15 4 -15 10 0 5 7 7 15 4 8 -4 15 -8 15 -10z m-2810
-30 c0 -8 -19 -13 -24 -6 -3 5 1 9 9 9 8 0 15 -2 15 -3z m2777 -36 c-4 -33
-22 -61 -40 -64 -10 -1 -13 4 -9 19 5 20 6 20 13 1 4 -10 8 -13 10 -6 2 16 6
31 9 37 1 3 4 10 5 15 1 6 3 12 4 15 4 16 11 1 8 -17z m-2769 -33 c-3 -3 -9 2
-12 12 -6 14 -5 15 5 6 7 -7 10 -15 7 -18z m57 -165 c-1 -17 1 -33 6 -36 5 -3
9 0 9 5 0 6 5 11 11 11 8 0 8 -4 -1 -14 -20 -25 -39 -8 -38 35 0 21 4 37 8 34
4 -3 6 -18 5 -35z m28 5 c-3 -9 -8 -14 -10 -11 -3 3 -2 9 2 15 9 16 15 13 8
-4z m2627 -30 c-7 -8 -16 -15 -21 -15 -5 0 -1 8 9 18 20 22 31 19 12 -3z
m-2644 -47 c-9 -5 -16 -14 -16 -20 0 -9 3 -9 12 0 7 7 17 12 23 12 5 0 2 -5
-8 -11 -15 -9 -16 -13 -5 -27 12 -16 11 -16 -6 -2 -18 14 -18 13 -11 -10 7
-24 7 -24 -8 -5 -8 11 -12 22 -9 25 13 9 13 52 0 44 -6 -4 -8 -3 -5 4 4 5 17
8 28 5 18 -5 19 -7 5 -15z m2621 -7 c0 -11 -5 -18 -9 -15 -4 3 -5 11 -1 19 7
21 12 19 10 -4z m-2622 -87 c9 -1 20 -6 23 -9 4 -4 -2 -5 -12 -3 -10 1 -21 -3
-24 -11 -3 -9 0 -11 8 -6 10 6 11 4 4 -6 -15 -24 -16 -62 -2 -70 9 -6 9 -9 1
-9 -6 0 -11 -13 -11 -30 1 -26 3 -28 16 -17 12 9 11 5 -2 -15 -10 -15 -14 -33
-10 -39 5 -8 3 -9 -6 -4 -9 5 -10 2 -5 -14 3 -12 2 -21 -3 -21 -6 0 -8 12 -6
28 5 24 8 177 4 177 -1 0 -3 18 -5 39 -2 24 0 34 5 26 5 -8 16 -15 25 -16z
m19 -60 c3 -8 2 -12 -4 -9 -6 3 -10 10 -10 16 0 14 7 11 14 -7z m2603 -186
c-3 -8 -6 -5 -6 6 -1 11 2 17 5 13 3 -3 4 -12 1 -19z m-2602 -18 c3 -5 0 -7
-8 -4 -11 4 -14 -2 -12 -20 2 -17 -1 -24 -8 -19 -6 4 -8 0 -4 -10 4 -10 2 -17
-4 -17 -6 0 -9 9 -6 20 3 11 1 23 -5 26 -5 3 -1 12 9 20 22 16 30 17 38 4z
m-30 -90 c3 -6 -1 -7 -9 -4 -18 7 -21 14 -7 14 6 0 13 -4 16 -10z m10 -38
c-17 -15 -23 -33 -15 -52 5 -14 4 -72 -1 -76 -4 -2 -6 12 -5 32 1 20 -1 37 -5
39 -12 8 -2 46 17 60 26 20 33 18 9 -3z m25 -76 c0 -2 -8 -10 -17 -17 -16 -13
-17 -12 -4 4 13 16 21 21 21 13z m-35 -76 c3 -5 1 -10 -4 -10 -6 0 -11 5 -11
10 0 6 2 10 4 10 3 0 8 -4 11 -10z m15 -24 c0 -2 -7 -7 -16 -10 -8 -3 -12 -2
-9 4 6 10 25 14 25 6z m-3 -41 c0 -6 -6 -12 -12 -12 -6 0 -12 6 -12 12 0 6 6
12 12 12 6 0 12 -6 12 -12z m-9 -66 c9 -12 9 -16 -1 -16 -7 0 -14 9 -14 20 -1
11 -1 18 0 16 2 -2 8 -11 15 -20z m-5 -54 c-7 -21 -12 -19 -10 4 0 11 5 18 9
15 4 -3 5 -11 1 -19z m2637 5 c6 -11 8 -20 6 -20 -3 0 -10 9 -16 20 -6 11 -8
20 -6 20 3 0 10 -9 16 -20z m-2636 -46 c3 -8 2 -12 -4 -9 -6 3 -10 10 -10 16
0 14 7 11 14 -7z m0 -59 c5 -22 4 -26 -4 -15 -5 8 -10 24 -10 34 0 26 6 18 14
-19z m2711 -18 c5 4 4 1 -1 -7 -6 -8 -14 -22 -18 -30 -3 -8 -4 -5 -2 8 4 23
-9 31 -17 10 -4 -10 -6 -10 -6 -1 -1 6 4 15 9 18 6 3 10 11 10 16 0 6 -4 8 -9
5 -5 -4 -7 4 -3 16 5 20 6 19 16 -10 7 -19 15 -30 21 -25z m19 -32 c-4 -8 -10
-15 -15 -15 -4 0 -6 7 -3 15 4 8 10 15 15 15 4 0 6 -7 3 -15z m-2729 -24 c3
-5 2 -12 -3 -15 -5 -3 -9 1 -9 9 0 17 3 19 12 6z m2763 -3 c15 -15 15 -28 0
-28 -6 0 -8 3 -5 7 4 3 -1 12 -11 19 -9 7 -12 14 -6 14 5 0 15 -5 22 -12z
m-24 -16 c3 -5 -1 -9 -9 -9 -8 0 -12 4 -9 9 3 4 7 8 9 8 2 0 6 -4 9 -8z
m-2739 -21 c3 -5 2 -12 -3 -15 -5 -3 -9 1 -9 9 0 17 3 19 12 6z m2695 -15 c0
-2 -7 -7 -16 -10 -8 -3 -12 -2 -9 4 6 10 25 14 25 6z m-2699 -69 c-10 -9 -11
-8 -5 6 3 10 9 15 12 12 3 -3 0 -11 -7 -18z m7 -52 c-3 -3 -9 2 -12 12 -6 14
-5 15 5 6 7 -7 10 -15 7 -18z m3036 -63 c3 -5 -1 -9 -9 -9 -8 0 -12 4 -9 9 3
4 7 8 9 8 2 0 6 -4 9 -8z m-3234 -92 c0 -5 -5 -10 -11 -10 -5 0 -7 5 -4 10 3
6 8 10 11 10 2 0 4 -4 4 -10z m-35 -20 c-3 -5 -12 -10 -18 -10 -7 0 -6 4 3 10
19 12 23 12 15 0z m-45 -30 c-8 -5 -19 -10 -25 -10 -5 0 -3 5 5 10 8 5 20 10
25 10 6 0 3 -5 -5 -10z m3605 -12 c7 -8 6 -9 -2 -4 -8 4 -13 2 -13 -6 0 -8 -4
-7 -10 4 -6 10 -19 15 -30 13 -11 -2 -20 1 -20 7 0 13 60 2 75 -14z m-3650 -7
c3 -5 -9 -19 -26 -31 -24 -18 -33 -20 -42 -10 -9 10 -9 11 1 6 13 -8 65 27 55
38 -3 3 -4 6 0 6 3 0 8 -4 12 -9z m3779 -57 c5 -13 -51 15 -90 45 -24 18 -20
17 28 -6 32 -15 59 -33 62 -39z m-104 16 c0 -5 -2 -10 -4 -10 -3 0 -8 5 -11
10 -3 6 -1 10 4 10 6 0 11 -4 11 -10z m-3747 -23 c3 -7 -3 -13 -14 -14 -15 -1
-16 1 -6 12 15 18 14 18 20 2z m-38 -37 c-26 -11 -35 -12 -35 -2 0 4 12 8 28
9 23 1 24 1 7 -7z m-50 -20 c-3 -5 -12 -10 -18 -10 -7 0 -6 4 3 10 19 12 23
12 15 0z m35 -14 c0 -2 -7 -7 -16 -10 -8 -3 -12 -2 -9 4 6 10 25 14 25 6z
m-126 -25 c3 -4 -3 -16 -13 -25 -14 -13 -18 -14 -18 -2 0 8 5 14 11 13 6 -1
10 4 9 11 -3 14 3 16 11 3z m-49 -41 c-3 -5 -12 -10 -18 -10 -7 0 -6 4 3 10
19 12 23 12 15 0z m-53 -14 c7 4 8 2 4 -5 -9 -13 -26 -5 -25 12 0 9 2 8 6 -1
2 -6 10 -9 15 -6z m-132 -86 c0 -5 -6 -9 -12 -7 -7 1 -12 -4 -10 -11 1 -8 -2
-11 -8 -7 -8 5 -7 11 1 21 13 16 29 18 29 4z m-43 -85 c0 -8 -4 -12 -9 -9 -5
3 -6 10 -3 15 9 13 12 11 12 -6z m-183 -36 c9 14 26 14 26 0 0 -5 -4 -7 -10
-4 -5 3 -10 1 -10 -5 0 -7 -6 -10 -12 -7 -7 2 -20 -5 -30 -15 -18 -21 -58 -32
-58 -16 0 5 6 8 14 5 7 -3 24 7 37 23 13 15 27 23 30 18 4 -7 9 -6 13 1z m86
7 c0 -3 -4 -8 -10 -11 -5 -3 -10 -1 -10 4 0 6 5 11 10 11 6 0 10 -2 10 -4z
m-205 -86 c4 -6 3 -10 -2 -9 -20 3 -34 -2 -28 -11 4 -6 -1 -7 -11 -3 -14 5
-13 8 7 19 29 16 27 16 34 4z m-147 -76 c-1 -5 -9 -9 -16 -10 -10 -2 -11 1 -1
12 12 14 24 13 17 -2z m50 -9 c-3 -3 -9 2 -12 12 -6 14 -5 15 5 6 7 -7 10 -15
7 -18z m-118 -9 c0 -3 -4 -8 -10 -11 -5 -3 -10 -1 -10 4 0 6 5 11 10 11 6 0
10 -2 10 -4z m-40 -26 c0 -5 -5 -10 -11 -10 -5 0 -7 5 -4 10 3 6 8 10 11 10 2
0 4 -4 4 -10z m41 -3 c-6 -8 -7 -18 -3 -22 4 -5 1 -5 -6 -1 -10 6 -10 11 -1
22 6 8 14 14 16 14 3 0 0 -6 -6 -13z m-77 -15 c3 -5 -1 -9 -9 -9 -8 0 -12 4
-9 9 3 4 7 8 9 8 2 0 6 -4 9 -8z m-40 -23 c3 -3 -5 -5 -19 -5 -13 0 -22 3 -19
7 4 8 30 6 38 -2z m-67 -34 c0 -8 -4 -12 -9 -9 -5 3 -6 10 -3 15 9 13 12 11
12 -6z m-72 -25 c-3 -5 -12 -10 -18 -10 -7 0 -6 4 3 10 19 12 23 12 15 0z
m-35 -4 c0 -2 -7 -7 -16 -10 -8 -3 -12 -2 -9 4 6 10 25 14 25 6z m-52 -26 c-7
-10 -14 -17 -17 -15 -4 4 18 35 25 35 2 0 -1 -9 -8 -20z m15 -15 c-3 -9 -8
-14 -10 -11 -3 3 -2 9 2 15 9 16 15 13 8 -4z m-82 -28 c-10 -9 -11 -8 -5 6 3
10 9 15 12 12 3 -3 0 -11 -7 -18z m20 -24 c-12 -20 -14 -14 -5 12 4 9 9 14 11
11 3 -2 0 -13 -6 -23z m83 19 c3 -5 -1 -9 -9 -9 -8 0 -12 4 -9 9 3 4 7 8 9 8
2 0 6 -4 9 -8z m-150 -18 c5 -14 4 -15 -9 -4 -17 14 -19 20 -6 20 5 0 12 -7
15 -16z m38 2 c7 4 8 2 4 -5 -9 -13 -26 -5 -25 12 0 9 2 8 6 -1 2 -6 10 -9 15
-6z m-78 -4 c3 -5 -1 -9 -9 -9 -8 0 -12 4 -9 9 3 4 7 8 9 8 2 0 6 -4 9 -8z
m-24 -38 c0 -8 -19 -13 -24 -6 -3 5 1 9 9 9 8 0 15 -2 15 -3z m-300 -120 c0
-8 -19 -13 -24 -6 -3 5 1 9 9 9 8 0 15 -2 15 -3z m7258 -109 c-3 -3 -9 2 -12
12 -6 14 -5 15 5 6 7 -7 10 -15 7 -18z m-7613 5 c-3 -5 -12 -10 -18 -10 -7 0
-6 4 3 10 19 12 23 12 15 0z m7680 -20 c10 -11 16 -20 13 -20 -3 0 -13 9 -23
20 -10 11 -16 20 -13 20 3 0 13 -9 23 -20z m59 -18 c3 -5 -1 -9 -9 -9 -8 0
-12 4 -9 9 3 4 7 8 9 8 2 0 6 -4 9 -8z m-8169 -101 c-13 -12 -85 -34 -91 -28
-3 3 14 11 38 20 53 18 65 20 53 8z m-495 -281 c0 -5 -4 -10 -10 -10 -5 0 -10
5 -10 10 0 6 5 10 10 10 6 0 10 -4 10 -10z m51 -13 c-10 -9 -11 -8 -5 6 3 10
9 15 12 12 3 -3 0 -11 -7 -18z m-87 -5 c3 -5 -1 -9 -9 -9 -8 0 -12 4 -9 9 3 4
7 8 9 8 2 0 6 -4 9 -8z m-89 -90 c-3 -3 -11 0 -18 7 -9 10 -8 11 6 5 10 -3 15
-9 12 -12z"/>
<path d="M3450 6434 c0 -8 5 -12 10 -9 6 4 8 11 5 16 -9 14 -15 11 -15 -7z"/>
<path d="M3341 6364 c0 -11 3 -14 6 -6 3 7 2 16 -1 19 -3 4 -6 -2 -5 -13z"/>
<path d="M7207 6319 c7 -7 15 -10 18 -7 3 3 -2 9 -12 12 -14 6 -15 5 -6 -5z"/>
<path d="M7120 6366 c0 -2 8 -10 18 -17 15 -13 16 -12 3 4 -13 16 -21 21 -21
13z"/>
<path d="M3306 5527 c3 -10 9 -15 12 -12 3 3 0 11 -7 18 -10 9 -11 8 -5 -6z"/>
<path d="M7025 5180 c-3 -6 1 -7 9 -4 18 7 21 14 7 14 -6 0 -13 -4 -16 -10z"/>
<path d="M3890 8700 c0 -5 5 -10 11 -10 5 0 7 5 4 10 -3 6 -8 10 -11 10 -2 0
-4 -4 -4 -10z"/>
<path d="M3819 8678 c-11 -36 -1 -58 26 -58 6 0 3 5 -5 10 -17 11 -20 32 -5
42 6 5 6 8 -2 8 -7 0 -13 -1 -14 -2z"/>
<path d="M3794 8622 c8 -13 -19 -23 -30 -12 -5 5 -18 2 -28 -6 -11 -8 -15 -14
-10 -14 6 0 15 5 21 11 8 8 13 7 18 -1 4 -7 1 -16 -6 -21 -12 -7 -12 -9 0 -9
10 0 11 -3 2 -14 -8 -9 -8 -16 -2 -20 12 -8 19 4 16 27 -2 9 1 17 6 17 6 0 7
5 3 12 -5 7 -2 9 8 6 26 -10 39 6 17 21 -12 7 -18 8 -15 3z"/>
<path d="M3636 8482 c-3 -5 1 -9 9 -9 8 0 12 4 9 9 -3 4 -7 8 -9 8 -2 0 -6 -4
-9 -8z"/>
<path d="M3625 8449 c4 -5 2 -16 -4 -23 -9 -10 -8 -15 4 -20 10 -3 13 -2 10 5
-4 5 -2 16 4 23 9 10 8 15 -4 20 -10 3 -13 2 -10 -5z"/>
<path d="M3694 8435 c-4 -8 -11 -12 -17 -8 -5 3 -7 1 -3 -5 3 -6 2 -13 -3 -17
-6 -3 -8 -12 -5 -20 4 -8 10 -12 15 -9 5 3 7 9 4 14 -3 5 0 14 7 22 14 14 21
38 13 38 -3 0 -8 -7 -11 -15z"/>
<path d="M3590 8367 c0 -8 -7 -20 -15 -27 -9 -7 -14 -19 -11 -26 3 -7 0 -15
-7 -18 -8 -3 -8 -5 -1 -5 6 -1 18 7 25 16 10 11 10 14 2 9 -7 -4 -13 -2 -13 3
0 6 3 11 8 11 13 0 32 39 22 45 -6 3 -10 0 -10 -8z"/>
<path d="M3548 8273 c7 -3 16 -2 19 1 4 3 -2 6 -13 5 -11 0 -14 -3 -6 -6z"/>
<path d="M3542 8246 c7 -8 15 -12 17 -11 5 6 -10 25 -20 25 -5 0 -4 -6 3 -14z"/>
<path d="M3529 8233 c-1 -5 -1 -11 0 -15 0 -5 -4 -8 -10 -8 -6 0 -9 -7 -5 -15
3 -8 1 -15 -4 -15 -5 0 -7 -7 -3 -16 3 -10 0 -22 -8 -28 -19 -15 -22 -43 -5
-49 9 -4 13 0 11 11 -3 24 14 54 26 46 8 -4 8 0 1 12 -10 21 -5 45 12 56 7 5
7 8 -2 8 -7 0 -10 5 -7 10 3 6 4 10 1 10 -3 0 -7 -3 -7 -7z"/>
<path d="M3532 8036 c20 -14 14 -28 -8 -19 -8 3 -14 0 -14 -7 0 -6 5 -8 10 -5
6 3 10 2 10 -4 0 -5 -6 -11 -12 -14 -10 -4 -10 -7 0 -18 7 -8 12 -9 11 -4 -2
6 3 21 11 35 21 37 20 46 -4 47 -19 2 -20 1 -4 -11z"/>
<path d="M3467 7855 c-11 -25 -23 -42 -28 -39 -5 3 -9 -2 -9 -10 0 -9 6 -16
13 -17 6 0 3 -4 -8 -9 -11 -5 -14 -9 -8 -9 9 -1 10 -8 2 -27 -5 -15 -7 -29 -5
-32 3 -2 1 -12 -4 -21 -5 -10 -5 -23 1 -32 8 -12 10 -12 8 1 -3 27 1 41 9 36
4 -2 9 7 10 21 2 30 11 45 21 39 4 -3 8 1 8 9 0 11 -4 12 -14 3 -11 -8 -13 -6
-10 12 2 13 12 27 23 31 10 4 13 8 6 8 -7 1 -10 6 -7 11 4 6 12 7 18 3 9 -5 9
-3 0 8 -7 8 -10 25 -6 37 9 36 -1 25 -20 -23z"/>
<path d="M3470 6966 c0 -2 7 -7 16 -10 8 -3 12 -2 9 4 -6 10 -25 14 -25 6z"/>
<path d="M3477 6921 c-4 -17 -3 -21 5 -13 5 5 8 16 6 23 -3 8 -7 3 -11 -10z"/>
<path d="M3501 6906 c-9 -10 -8 -16 4 -26 10 -9 15 -9 15 -1 0 6 -5 11 -11 11
-8 0 -8 5 1 15 7 8 10 15 7 15 -2 0 -10 -6 -16 -14z"/>
</g>
</svg>
